:FULLY-SPECIFIED
:FORCE-ALL-JOINTS-BE-3DOF
:DEGREES
713
root 5.42752 20.9998 7.36717 -57.984 -89.3774 75.346
lfemur -35.5296 -10.388 11.5869
ltibia 71.8062 -0 0
lfoot 7.2559 -10.6661 -0.185403
ltoes 29.4936 -0 0
rfemur -27.0833 -4.57667 -1.01528
rtibia 78.5025 -0 0
rfoot 21.3123 -17.7144 -0.0869349
rtoes 33.3638 -0 0
lowerback 4.4828 -0.260568 -1.53718
upperback -1.70348 -0.528672 -1.69783
thorax -4.26524 -0.252066 -0.845631
lowerneck -7.13174 -6.22907 -1.98706
upperneck -0.0346683 -8.30918 4.59639
head 1.50218 -4.08644 1.48461
lclavicle -1.78906e-15 2.14687e-14 0
lhumerus 0.391926 -20.1586 16.0973
lradius 51.9216 -0 0
lwrist 26.5537 0 0
lhand -22.2551 -3.2715 0.00996565
lfingers 7.12502 -0 0
lthumb 4.16236 26.6611 0.00915945
rclavicle -1.78906e-15 2.14687e-14 0
rhumerus -11.7738 -4.62741 -23.6433
rradius 99.7032 -0 0
rwrist -9.57772 0 0
rhand -29.0707 -34.924 0.265318
rfingers 7.12502 -0 0
rthumb -2.4193 -64.823 0.253369
714
root 5.41154 21.0292 7.58229 -142.574 -88.3128 160.044
lfemur -34.8355 -11.5134 10.8835
ltibia 68.1191 -0 0
lfoot 7.5917 -11.6563 -0.182501
ltoes 29.0939 -0 0
rfemur -27.9908 -5.03239 -1.84639
rtibia 84.1506 -0 0
rfoot 21.6554 -18.1683 -0.0855759
rtoes 35.1748 -0 0
lowerback 4.44798 -0.102381 -1.46836
upperback -1.72966 -0.311283 -1.66911
thorax -4.27212 -0.145329 -0.872265
lowerneck -7.16197 -6.35571 -2.12471
upperneck -0.215442 -8.46289 4.59992
head 1.46101 -4.16652 1.50399
lclavicle -1.78906e-15 2.14687e-14 0
lhumerus -1.37478 -20.1622 16.6211
lradius 50.9517 -0 0
lwrist 26.0904 0 0
lhand -22.4683 -3.3552 0.00980992
lfingers 7.12502 -0 0
lthumb 3.95647 26.5814 0.00901633
rclavicle -1.78906e-15 2.14687e-14 0
rhumerus -10.83 -3.90482 -24.2723
rradius 99.7147 -0 0
rwrist -9.78085 0 0
rhand -28.3799 -34.2354 0.261166
rfingers 7.12502 -0 0
rthumb -1.75216 -64.142 0.249404
715
root 5.39557 21.0586 7.79741 -153.109 -86.6263 170.687
lfemur -34.1244 -12.6302 10.1633
ltibia 64.432 -0 0
lfoot 7.92741 -12.6466 -0.173796
ltoes 28.6942 -0 0
rfemur -28.8923 -5.50114 -2.67076
rtibia 89.7988 -0 0
rfoot 21.9984 -18.6222 -0.0814988
rtoes 36.9857 -0 0
lowerback 4.41336 0.0558479 -1.39964
upperback -1.75573 -0.0938808 -1.6405
thorax -4.27904 -0.0385959 -0.898912
lowerneck -7.19189 -6.48243 -2.26232
upperneck -0.396299 -8.61659 4.60394
head 1.4198 -4.24658 1.52343
lclavicle -1.78906e-15 2.14687e-14 0
lhumerus -3.1414 -20.1506 17.1446
lradius 49.9818 -0 0
lwrist 25.6272 0 0
lhand -22.6815 -3.43889 0.00934274
lfingers 7.12502 -0 0
lthumb 3.75058 26.5018 0.00858695
rclavicle -1.78906e-15 2.14687e-14 0
rhumerus -9.89488 -3.17205 -24.8887
rradius 99.7261 -0 0
rwrist -9.98397 0 0
rhand -27.6891 -33.5468 0.248712
rfingers 7.12502 -0 0
rthumb -1.0851 -63.4612 0.237511
716
root 5.37959 21.0879 8.01253 -156.542 -84.9016 174.228
lfemur -33.3956 -13.7381 9.42548
ltibia 60.7449 -0 0
lfoot 8.26291 -13.6367 -0.159291
ltoes 28.2945 -0 0
rfemur -29.7876 -5.98269 -3.48831
rtibia 95.447 -0 0
rfoot 22.3414 -19.0761 -0.0747042
rtoes 38.7967 -0 0
lowerback 4.37892 0.214118 -1.33102
upperback -1.7817 0.123534 -1.61198
thorax -4.28601 0.0681341 -0.925572
lowerneck -7.22152 -6.60922 -2.39991
upperneck -0.577241 -8.77028 4.60845
head 1.37856 -4.32663 1.54294
lclavicle -1.78906e-15 2.14687e-14 0
lhumerus -4.90762 -20.1238 17.6675
lradius 49.0119 -0 0
lwrist 25.164 0 0
lhand -22.8947 -3.52258 0.00856412
lfingers 7.12502 -0 0
lthumb 3.5447 26.4221 0.00787132
rclavicle -1.78906e-15 2.14687e-14 0
rhumerus -8.96833 -2.42937 -25.4927
rradius 99.7376 -0 0
rwrist -10.1871 0 0
rhand -26.9985 -32.8585 0.227958
rfingers 7.12502 -0 0
rthumb -0.418234 -62.7805 0.217694
717
root 5.36361 21.1173 8.22765 -158.21 -83.1676 176.005
lfemur -32.6486 -14.8367 8.66956
ltibia 57.0578 -0 0
lfoot 8.59812 -14.6268 -0.13899
ltoes 27.8948 -0 0
rfemur -30.6768 -6.47686 -4.29895
rtibia 101.095 -0 0
rfoot 22.6844 -19.5299 -0.0651926
rtoes 40.6077 -0 0
lowerback 4.34467 0.372429 -1.26249
upperback -1.80756 0.340962 -1.58356
thorax -4.29303 0.174861 -0.952244
lowerneck -7.25085 -6.73607 -2.53746
upperneck -0.75827 -8.92395 4.61345
head 1.33729 -4.40667 1.5625
lclavicle -1.78906e-15 2.14687e-14 0
lhumerus -6.67312 -20.0819 18.1892
lradius 48.0419 -0 0
lwrist 24.7008 0 0
lhand -23.1079 -3.60627 0.00747407
lfingers 7.12502 -0 0
lthumb 3.33881 26.3425 0.00686945
rclavicle -1.78906e-15 2.14687e-14 0
rhumerus -8.05009 -1.67708 -26.0844
rradius 99.749 -0 0
rwrist -10.3902 0 0
rhand -26.3082 -32.1705 0.198912
rfingers 7.12502 -0 0
rthumb 0.248348 -62.1 0.189957
718
root 5.34763 21.1466 8.44278 -159.181 -81.4299 177.084
lfemur -31.8826 -15.9255 7.89484
ltibia 53.3707 -0 0
lfoot 8.93292 -15.6167 -0.112901
ltoes 27.4951 -0 0
rfemur -31.5597 -6.98343 -5.10259
rtibia 106.743 -0 0
rfoot 23.0272 -19.9837 -0.0529651
rtoes 42.4186 -0 0
lowerback 4.31061 0.530782 -1.19405
upperback -1.83331 0.558403 -1.55523
thorax -4.3001 0.281584 -0.97893
lowerneck -7.27988 -6.863 -2.67498
upperneck -0.93939 -9.07761 4.61895
head 1.29599 -4.48669 1.58212
lclavicle -1.78906e-15 2.14687e-14 0
lhumerus -8.43758 -20.025 18.7091
lradius 47.072 -0 0
lwrist 24.2376 0 0
lhand -23.3211 -3.68996 0.00607261
lfingers 7.12502 -0 0
lthumb 3.13293 26.2628 0.00558137
rclavicle -1.78906e-15 2.14687e-14 0
rhumerus -7.13994 -0.915455 -26.6637
rradius 99.7605 -0 0
rwrist -10.5933 0 0
rhand -25.6183 -31.4829 0.161581
rfingers 7.12502 -0 0
rthumb 0.914553 -61.42 0.154308
719
root 5.33166 21.176 8.6579 -159.806 -79.6905 177.818
lfemur -31.097 -17.0041 7.10062
ltibia 49.6836 -0 0
lfoot 9.26723 -16.6064 -0.0810327
ltoes 27.0954 -0 0
rfemur -32.4364 -7.50219 -5.89919
rtibia 112.392 -0 0
rfoot 23.37 -20.4374 -0.0380228
rtoes 44.2296 -0 0
lowerback 4.27674 0.689174 -1.1257
upperback -1.85895 0.775856 -1.52701
thorax -4.30722 0.388305 -1.00563
lowerneck -7.30861 -6.99 -2.81248
upperneck -1.1206 -9.23124 4.62495
head 1.25466 -4.5667 1.6018
lclavicle -1.78906e-15 2.14687e-14 0
lhumerus -10.2007 -19.9531 19.2266
lradius 46.1021 -0 0
lwrist 23.7743 0 0
lhand -23.5343 -3.77363 0.00435976
lfingers 7.12502 -0 0
lthumb 2.92705 26.1832 0.00400708
rclavicle -1.78906e-15 2.14687e-14 0
rhumerus -6.23765 -0.144763 -27.2308
rradius 99.7719 -0 0
rwrist -10.7965 0 0
rhand -24.9289 -30.7957 0.115976
rfingers 7.12502 -0 0
rthumb 1.58029 -60.7404 0.110757
720
root 5.31568 21.2053 8.87302 -160.236 -77.95 178.356
lfemur -30.2911 -18.072 6.28621
ltibia 45.9965 -0 0
lfoot 9.60093 -17.596 -0.0433947
ltoes 26.6957 -0 0
rfemur -33.3069 -8.03294 -6.68866
rtibia 118.04 -0 0
rfoot 23.7126 -20.891 -0.0203672
rtoes 46.0405 -0 0
lowerback 4.24306 0.847607 -1.05745
upperback -1.88449 0.993322 -1.49888
thorax -4.31439 0.495021 -1.03234
lowerneck -7.33704 -7.11706 -2.94995
upperneck -1.30191 -9.38486 4.63144
head 1.21329 -4.64669 1.62154
lclavicle -1.78906e-15 2.14687e-14 0
lhumerus -11.9622 -19.8662 19.7413
lradius 45.1321 -0 0
lwrist 23.3111 0 0
lhand -23.7475 -3.85731 0.00233555
lfingers 7.12502 -0 0
lthumb 2.72117 26.1035 0.00214662
rclavicle -1.78906e-15 2.14687e-14 0
rhumerus -5.34299 0.634726 -27.7857
rradius 99.7833 -0 0
rwrist -10.9996 0 0
rhand -24.2401 -30.1092 0.0621105
rfingers 7.12502 -0 0
rthumb 2.24546 -60.0614 0.0593163
721
root 5.2997 21.2347 9.08814 -160.543 -76.2089 178.773
lfemur -29.4642 -19.1287 5.45089
ltibia 42.3094 0 0
lfoot 9.93393 -18.5853 0
ltoes 26.296 0 0
rfemur -34.171 -8.57547 -7.47098
rtibia 123.688 0 0
rfoot 24.0551 -21.3445 0
rtoes 47.8515 0 0
lowerback 4.20956 1.00608 -0.989286
upperback -1.90992 1.2108 -1.47084
thorax -4.32161 0.601735 -1.05907
lowerneck -7.36517 -7.24419 -3.08739
upperneck -1.48332 -9.53846 4.63842
head 1.17189 -4.72667 1.64134
lclavicle 4.96962e-16 -9.54166e-15 0
lhumerus -13.7217 -19.7645 20.2526
lradius 44.1622 0 0
lwrist 22.8479 0 0
lhand -23.9607 -3.94097 0
lfingers 7.12502 0 0
lthumb 2.51529 26.0239 0
rclavicle 4.96962e-16 -9.54166e-15 0
rhumerus -4.45569 1.42275 -28.3285
rradius 99.7948 0 0
rwrist -11.2027 0 0
rhand -23.552 -29.4234 0
rfingers 7.12502 0 0
rthumb 2.90997 -779.383 0
722
root 5.25148 21.0731 9.29986 -161.94 -73.4011 -179.435
lfemur -28.9233 -18.8897 4.85528
ltibia 40.8054 -0 0
lfoot 9.58306 -18.2569 -0.0151035
ltoes 25.7092 -0 0
rfemur -33.7043 -9.86594 -7.31854
rtibia 123.725 -0 0
rfoot 24.4832 -19.5029 0.105355
rtoes 46.6447 -0 0
lowerback 3.96858 1.40503 -0.825257
upperback -1.95679 1.75721 -1.45295
thorax -4.20666 0.870455 -1.13973
lowerneck -7.40364 -7.2693 -2.97196
upperneck -1.49953 -9.58096 4.5402
head 1.16196 -4.75082 1.58914
lclavicle 4.96962e-16 -9.54166e-15 0
lhumerus -16.3121 -20.199 22.0638
lradius 44.4562 -0 0
lwrist 22.7411 0 0
lhand -23.8637 -3.9467 -7.27127e-05
lfingers 7.12502 -0 0
lthumb 2.60897 26.0167 -8.78347e-05
rclavicle 4.96962e-16 -9.54166e-15 0
rhumerus -1.92447 1.71911 -29.5609
rradius 99.2422 -0 0
rwrist -10.9858 0 0
rhand -23.9443 -29.5168 0.00479894
rfingers 7.12502 -0 0
rthumb 2.53105 -59.4762 0.00462574
723
root 5.20325 20.9116 9.51157 -162.877 -70.5845 -178.1
lfemur -28.3859 -18.6453 4.26294
ltibia 39.3015 -0 0
lfoot 9.2321 -17.9284 -0.0281954
ltoes 25.1223 -0 0
rfemur -33.2391 -11.1576 -7.17618
rtibia 123.762 -0 0
rfoot 24.9144 -17.6606 0.196897
rtoes 45.4379 -0 0
lowerback 3.72869 1.80466 -0.662876
upperback -2.00351 2.30363 -1.43551
thorax -4.09208 1.13934 -1.21985
lowerneck -7.44215 -7.29433 -2.85651
upperneck -1.51566 -9.62349 4.44198
head 1.15205 -4.77498 1.53694
lclavicle 4.96962e-16 -9.54166e-15 0
lhumerus -18.9226 -20.5559 23.8988
lradius 44.7502 -0 0
lwrist 22.6343 0 0
lhand -23.7667 -3.95242 -0.000135731
lfingers 7.12502 -0 0
lthumb 2.70266 26.0096 -0.000163959
rclavicle 4.96962e-16 -9.54166e-15 0
rhumerus 0.600253 2.06952 -30.7791
rradius 98.6896 -0 0
rwrist -10.7689 0 0
rhand -24.3367 -29.6101 0.0089585
rfingers 7.12502 -0 0
rthumb 2.15212 -59.5694 0.00863516
